<?xml version="1.0" ?><!DOCTYPE svg  PUBLIC '-//W3C//DTD SVG 1.1//EN'  'http://www.w3.org/Graphics/SVG/1.1/DTD/svg11.dtd'><svg enable-background="new 0 0 128 128" id="Layer_1" version="1.1" viewBox="0 0 128 128" xml:space="preserve" xmlns="http://www.w3.org/2000/svg" xmlns:xlink="http://www.w3.org/1999/xlink"><path d="M108,102H20c-2.21,0-4-1.79-4-4V37c0-2.21,1.79-4,4-4h88c2.21,0,4,1.79,4,4v61  C112,100.21,110.21,102,108,102z" fill="#DBC5B9"/><path d="M108,102H20  c-2.21,0-4-1.79-4-4V37c0-2.21,1.79-4,4-4h88c2.21,0,4,1.79,4,4v61C112,100.21,110.21,102,108,102z" fill="none" stroke="#4A7DA7" stroke-linecap="round" stroke-miterlimit="10" stroke-width="4"/><path d="M112,54L64,69L16,54V35.17c0-1.2,0.97-2.17,2.17-2.17h91.65c1.2,0,2.17,0.97,2.17,2.17V54z" opacity="0.1"/><path d="M103.47,56.66L64,69L16,54  V35.17c0-1.2,0.97-2.17,2.17-2.17h91.65c1.2,0,2.17,0.97,2.17,2.17V54" fill="none" stroke="#4A7DA7" stroke-linecap="round" stroke-miterlimit="10" stroke-width="4"/><path d="M75.55,22H52.45  c-1.91,0-3.47,1.55-3.47,3.47V33h30.02v-7.53C79.01,23.55,77.46,22,75.55,22z" fill="none" stroke="#4A7DA7" stroke-linecap="round" stroke-miterlimit="10" stroke-width="4"/><line fill="none" stroke="#4A7DA7" stroke-linecap="round" stroke-miterlimit="10" stroke-width="4" x1="32" x2="32" y1="102" y2="106"/><line fill="none" stroke="#4A7DA7" stroke-linecap="round" stroke-miterlimit="10" stroke-width="4" x1="96" x2="96" y1="102" y2="106"/><polyline fill="none" points="104,64 104,94   24,94 24,57 " stroke="#4A7DA7" stroke-linecap="round" stroke-miterlimit="10" stroke-width="2"/><rect fill="#D8E3EA" height="15" width="10" x="59" y="61"/><rect height="15" opacity="0.1" width="10" x="59" y="61"/><rect fill="none" height="15" stroke="#4A7DA7" stroke-linecap="round" stroke-linejoin="round" stroke-miterlimit="10" stroke-width="4" width="10" x="59" y="61"/></svg>