<?xml version="1.0" ?><svg height="100" version="1.1" width="100.0" xmlns="http://www.w3.org/2000/svg"><path d="M330,792 l184,135 c24,-17,53,-27,85,-27 c84,2,152,68,151,151 c0,83,-67,150,-150,149 c-83,-1,-150,-67,-150,-150 c0,-15,2,-28,6,-42 l-185,-135 Z M305,100 c-28,0,-50,22,-50,50 c0,28,22,50,50,50 c28,0,50,-22,50,-50 c0,-28,-22,-50,-50,-50 Z M305,0 c65,0,121,42,142,100 l228,0 l0,100 l-228,0 c-21,58,-77,100,-142,100 c-83,0,-150,-67,-150,-150 c0,-83,67,-150,150,-150 Z M188,344 l95,31 l-69,210 c35,28,58,71,58,119 c0,82,-67,151,-149,150 c-84,-1,-150,-67,-151,-150 c-1,-82,65,-148,147,-150 Z M122,654 c-28,0,-50,22,-50,49 c0,29,23,51,52,51 c25,0,48,-23,48,-50 c0,-28,-22,-50,-50,-50 Z M895,100 c-28,0,-50,22,-50,50 c0,28,22,50,50,50 c28,0,50,-22,50,-50 c0,-28,-22,-50,-50,-50 Z M895,0 c83,0,150,67,150,150 c0,48,-23,91,-58,118 l70,210 l-95,31 l-70,-209 c-81,-1,-147,-68,-147,-150 c0,-83,67,-150,150,-150 Z M598,1000 c-27,1,-48,23,-48,50 c0,28,22,50,51,50 c27,0,49,-22,49,-50 c1,-26,-21,-48,-52,-50 Z M1078,554 c83,0,149,67,150,150 c-1,82,-68,150,-151,150 c-32,0,-61,-10,-85,-26 l-184,134 l-58,-82 l184,-134 c-5,-13,-7,-28,-7,-43 c-1,-82,68,-149,151,-149 Z M1078,654 c-28,0,-51,22,-51,48 c0,30,22,52,50,52 c27,0,50,-22,51,-50 c-1,-29,-23,-50,-50,-50 Z M1078,654 " fill="rgba(0,0,0,1.0)" transform="matrix(0.05,0.0,0.0,-0.05,20.0,80.0)"/></svg>