<?xml version="1.0" ?><svg viewBox="0 0 60.25 60.25" xmlns="http://www.w3.org/2000/svg"><defs><style>.cls-1{fill:#b0bec5;}.cls-2{fill:#78909c;}.cls-3{fill:#eee;}.cls-4{fill:#ffca28;}.cls-5{fill:#ffa000;}.cls-6{fill:#384356;}</style></defs><title/><g data-name="Layer 4" id="Layer_4"><path className="cls-1" d="M37.35,57H22.9a11.63,11.63,0,0,0,3.63-8.33h7.19A11.63,11.63,0,0,0,37.35,57Z"/><rect className="cls-2" height="2.92" width="9.23" x="25.51" y="48.35"/><path className="cls-2" d="M57.13,44.5a2,2,0,0,1-2,2h-50a2,2,0,0,1-2-2V11.87a2,2,0,0,1,2-2H18.79a11.51,11.51,0,0,0-.51,3.4,11.85,11.85,0,0,0,23.69,0,11.51,11.51,0,0,0-.51-3.4H55.11a2,2,0,0,1,2,2Z"/><rect className="cls-3" height="31.47" width="48.67" x="5.66" y="12.33"/><circle className="cls-4" cx="30.13" cy="13.25" r="9.84"/><path className="cls-5" d="M9.86,31.46a2.69,2.69,0,0,1,2.71-2.3H48s2.21.3,2.37,2.3v5.45a2.49,2.49,0,0,1-2.5,2.25H12.24a2.46,2.46,0,0,1-2.38-2.54Z"/></g><g id="icons"><path className="cls-6" d="M55.11,7.85H40.65a11.81,11.81,0,0,0-21,0H5.14a4,4,0,0,0-4,4V44.5a4,4,0,0,0,4,4H24.52c-.07,1.92-.74,6.48-5.42,8.33H15.37a1,1,0,1,0,0,2H44.88a1,1,0,0,0,0-2H41.15c-4.68-1.85-5.35-6.41-5.41-8.33H55.11a4,4,0,0,0,4-4V11.87A4,4,0,0,0,55.11,7.85Zm-25-4.45a9.85,9.85,0,1,1-9.85,9.85A9.86,9.86,0,0,1,30.13,3.4Zm7.22,53.45H22.9a11.61,11.61,0,0,0,3.63-8.33h7.19A11.61,11.61,0,0,0,37.35,56.85ZM57.13,44.5a2,2,0,0,1-2,2h-50a2,2,0,0,1-2-2V11.87a2,2,0,0,1,2-2H18.79a11.51,11.51,0,0,0-.51,3.4,11.85,11.85,0,0,0,23.69,0,11.51,11.51,0,0,0-.51-3.4H55.11a2,2,0,0,1,2,2Z"/><path className="cls-6" d="M43.46,12.43a.5.5,0,0,0,.5.5H54V43.44H15.88a.5.5,0,0,0-.5.5.5.5,0,0,0,.5.5H55V11.93H44A.5.5,0,0,0,43.46,12.43Z"/><path className="cls-6" d="M12.75,43.44H6.28V12.93h9.6a.5.5,0,0,0,0-1H5.28V44.44h7.47a.5.5,0,0,0,.5-.5A.5.5,0,0,0,12.75,43.44Z"/><path className="cls-6" d="M9.37,31.67v5a3,3,0,0,0,3,3H47.89a3,3,0,0,0,3-3v-5a3,3,0,0,0-3-3h-6.8a.5.5,0,0,0-.5.5.5.5,0,0,0,.5.5h6.8a2,2,0,0,1,2,2v5a2,2,0,0,1-2,2H12.36a2,2,0,0,1-2-2v-5a2,2,0,0,1,2-2H37.83v-1H12.36A3,3,0,0,0,9.37,31.67Z"/><path className="cls-6" d="M18.08,34l1.09-.63-.47-.77-1.08.64-.23.14a1.8,1.8,0,0,0-.2.18,1,1,0,0,0,.06-.26,2.46,2.46,0,0,0,0-.28V31.7h-.93V33a1.78,1.78,0,0,0,.08.53,1.33,1.33,0,0,0-.43-.33l-1.09-.65-.45.77,1.09.64.26.14a1.38,1.38,0,0,0,.27.08,1.34,1.34,0,0,0-.27.07l-.26.13L14.45,35l.46.78L16,35.15a1.68,1.68,0,0,0,.43-.33,1.1,1.1,0,0,0-.06.26,1.27,1.27,0,0,0,0,.28v1.26h.93V35.35a1.53,1.53,0,0,0-.09-.54l.2.18.24.16,1.09.64.46-.77-1.09-.65a1.28,1.28,0,0,0-.53-.2l.27-.09A1.58,1.58,0,0,0,18.08,34Z"/><path className="cls-6" d="M27,34,28,33.32l-.46-.77-1.08.64-.24.14-.19.18a1,1,0,0,0,.06-.26,2.46,2.46,0,0,0,0-.28V31.7h-.93V33a1.78,1.78,0,0,0,.08.53,1.45,1.45,0,0,0-.43-.33l-1.09-.65-.45.77,1.08.64.27.14a1.38,1.38,0,0,0,.27.08,1.34,1.34,0,0,0-.27.07l-.27.13L23.33,35l.46.78,1.08-.63a1.62,1.62,0,0,0,.42-.33l-.06.26a2.53,2.53,0,0,0,0,.28v1.26h.93V35.35a1.53,1.53,0,0,0-.09-.54l.2.18.24.16,1.09.64L28,35,27,34.37a1.28,1.28,0,0,0-.53-.2l.27-.09A1.58,1.58,0,0,0,27,34Z"/><path className="cls-6" d="M35.84,34l1.08-.63-.46-.77-1.08.64-.24.14a1.66,1.66,0,0,0-.19.18,1,1,0,0,0,.06-.26A2.46,2.46,0,0,0,35,33V31.7H34.1V33a1.51,1.51,0,0,0,.08.53,1.45,1.45,0,0,0-.43-.33l-1.09-.65-.45.77,1.08.64.27.14a1.38,1.38,0,0,0,.27.08,1.34,1.34,0,0,0-.27.07l-.27.13L32.21,35l.46.78,1.08-.63a1.62,1.62,0,0,0,.42-.33,2,2,0,0,0-.06.26,2.53,2.53,0,0,0,0,.28v1.26H35V35.35a1.53,1.53,0,0,0-.09-.54,1.8,1.8,0,0,0,.2.18l.24.16,1.09.64.45-.77-1.08-.65a1.28,1.28,0,0,0-.53-.2l.27-.09Z"/><path className="cls-6" d="M42.17,34.37,41.08,35l.47.78,1.08-.63a1.81,1.81,0,0,0,.42-.33,1.1,1.1,0,0,0-.06.26,2.46,2.46,0,0,0,0,.28v1.26h.94V35.35a1.53,1.53,0,0,0-.09-.54A1.8,1.8,0,0,0,44,35l.24.16,1.09.64L45.8,35l-1.09-.65a1.25,1.25,0,0,0-.52-.2l.27-.09a1.49,1.49,0,0,0,.25-.13l1.09-.63-.46-.77-1.08.64a1.88,1.88,0,0,0-.24.14,1.66,1.66,0,0,0-.19.18,1,1,0,0,0,.06-.26,2.46,2.46,0,0,0,0-.28V31.7H43V33a1.51,1.51,0,0,0,.09.53,1.45,1.45,0,0,0-.43-.33l-1.09-.65-.46.77,1.09.64.26.14a1.47,1.47,0,0,0,.28.08,1.34,1.34,0,0,0-.27.07Z"/><path className="cls-6" d="M27.08,19.66h6.09a1.57,1.57,0,0,0,1.57-1.57V13.9a1.56,1.56,0,0,0-1.18-1.51V9.93a3.44,3.44,0,1,0-6.87,0v2.46a1.56,1.56,0,0,0-1.18,1.51v4.19A1.57,1.57,0,0,0,27.08,19.66Zm3.33-3.89V17a.29.29,0,1,1-.57,0V15.77a.65.65,0,0,1-.39-.6.68.68,0,1,1,1.35,0A.65.65,0,0,1,30.41,15.77ZM28.2,9.93a1.93,1.93,0,0,1,3.85,0v2.4H28.2Z"/></g></svg>