<?xml version="1.0" ?><svg id="Layer_1" style="enable-background:new 0 0 48 48;" version="1.1" viewBox="0 0 48 48" xml:space="preserve" xmlns="http://www.w3.org/2000/svg" xmlns:xlink="http://www.w3.org/1999/xlink"><style type="text/css">
	.st0{fill:#E3F5FC;}
	.st1{fill:#439CBF;}
	.st2{fill:#EDEDED;}
</style><g><g><path className="st0" d="M39,8.1V46H9V8.1h7c-0.1,0.4-0.2,0.8-0.2,1.2v2.8h16.4V9.3c0-0.4-0.1-0.8-0.2-1.2H39z"/><path className="st1" d="M40.5,47.5h-33V6.6h10.6l-0.7,2c-0.1,0.2-0.1,0.4-0.1,0.7v1.3h13.4V9.3c0-0.3,0-0.5-0.1-0.7l-0.7-2h10.6V47.5    z M10.5,44.5h27V9.6h-3.8v4H14.3v-4h-3.8V44.5z"/></g><g><path className="st2" d="M32.2,9.3v2.8H15.8V9.3c0-0.4,0.1-0.8,0.2-1.2c0.5-1.6,2-2.8,3.8-2.8h0.9C20.6,3.5,22.2,2,24,2    c1.9,0,3.4,1.5,3.4,3.4h0.9c1.8,0,3.3,1.2,3.8,2.8C32.2,8.5,32.2,8.9,32.2,9.3z"/><path className="st1" d="M33.7,13.6H14.3V9.3c0-0.6,0.1-1.2,0.3-1.7c0.7-2.1,2.6-3.6,4.8-3.8c0.6-2,2.5-3.4,4.6-3.4s4,1.4,4.6,3.4    c2.2,0.1,4.1,1.6,4.8,3.8c0.2,0.5,0.3,1,0.3,1.6V13.6z M17.3,10.6h13.4V9.3c0-0.3,0-0.5-0.1-0.7c-0.3-1.1-1.3-1.8-2.3-1.8h-2.4    V5.4c0-1-0.8-1.9-1.9-1.9s-1.9,0.8-1.9,1.9v1.5h-2.4c-1.1,0-2,0.7-2.3,1.7c-0.1,0.2-0.1,0.5-0.1,0.7V10.6z"/></g><g><rect className="st1" height="3" width="19.1" x="14.4" y="18.7"/></g><g><rect className="st1" height="3" width="19.1" x="14.4" y="24.9"/></g><g><rect className="st1" height="3" width="19.1" x="14.4" y="31.1"/></g><g><rect className="st1" height="3" width="10.8" x="14.4" y="37.4"/></g></g></svg>