<?xml version="1.0" ?><svg id="Layer_1" style="enable-background:new 0 0 128 128;" version="1.1" viewBox="0 0 128 128" xml:space="preserve" xmlns="http://www.w3.org/2000/svg" xmlns:xlink="http://www.w3.org/1999/xlink"><style type="text/css">
	.st0{fill:#3A2C60;}
	.st1{fill:#E6E7E8;}
	.st2{fill:#FA759E;}
	.st3{fill:#FFFFFF;}
	.st4{fill:#6DC9F7;}
	.st5{fill:#FFD7E5;}
	.st6{fill:#0089EF;}
	.st7{fill:#D4FBFF;}
	.st8{fill:#F5F6F9;}
	.st9{fill:#D0D2D3;}
</style><g><path className="st1" d="M113.165,33.775H87.095H45.832h-5.539v-0.803c0-1.362-1.104-2.466-2.466-2.466h-1.823v-1.609   c0-1.362-1.104-2.466-2.466-2.466h-2.145c-1.362,0-2.466,1.104-2.466,2.466v1.609h-2.252c-1.362,0-2.466,1.104-2.466,2.466v0.803   h-3.979c-4.794,0-8.681,3.887-8.681,8.681v14.055v2.996v39.119c0,4.794,3.887,8.681,8.681,8.681h92.936   c4.794,0,8.681-3.887,8.681-8.681V59.507v-2.996V42.456C121.846,37.661,117.96,33.775,113.165,33.775z"/><g><path className="st2" d="M31.609,25.768V24.16c0-1.362-1.104-2.466-2.466-2.466h-2.145c-1.362,0-2.466,1.104-2.466,2.466v1.609H31.609    z"/><path className="st6" d="M35.899,29.037v-0.803c0-1.362-1.104-2.466-2.466-2.466H22.28c-1.362,0-2.466,1.104-2.466,2.466v0.803H35.899    z"/><path className="st4" d="M108.771,29.037H82.7H41.437H15.835c-4.794,0-8.681,3.887-8.681,8.681v56.17c0,4.794,3.887,8.681,8.681,8.681    h92.936c4.794,0,8.681-3.887,8.681-8.681v-56.17C117.452,32.924,113.565,29.037,108.771,29.037z"/><g><path className="st5" d="M46.306,51.773H7.154v4.996h37.335C44.966,55.044,45.575,53.376,46.306,51.773z"/><path className="st5" d="M107.916,51.773c0.731,1.602,1.34,3.271,1.817,4.996h7.718v-4.996H107.916z"/></g><circle className="st3" cx="77.111" cy="65.803" r="33.851"/><ellipse className="st6" cx="78.388" cy="67.931" rx="33.851" ry="33.851" transform="matrix(0.9871 -0.1602 0.1602 0.9871 -9.8691 13.4335)"/><ellipse className="st4" cx="77.111" cy="65.803" rx="25.54" ry="25.54" transform="matrix(0.9732 -0.2298 0.2298 0.9732 -13.0556 19.4768)"/><g><path className="st0" d="M108.771,28.037H36.879c-0.105-1.818-1.603-3.269-3.446-3.269h-0.823V24.16c0-1.911-1.555-3.466-3.467-3.466     h-2.145c-1.911,0-3.466,1.555-3.466,3.466v0.608H22.28c-1.844,0-3.342,1.451-3.446,3.269h-2.998     c-5.338,0-9.681,4.343-9.681,9.681v56.17c0,5.338,4.343,9.681,9.681,9.681h92.936c5.339,0,9.682-4.343,9.682-9.681v-56.17     C118.452,32.38,114.109,28.037,108.771,28.037z M25.532,24.16c0-0.809,0.658-1.466,1.466-1.466h2.145     c0.809,0,1.467,0.658,1.467,1.466v0.608h-5.078V24.16z M22.28,26.768h1.252h9.078h0.823c0.742,0,1.356,0.553,1.453,1.269H20.827     C20.923,27.321,21.538,26.768,22.28,26.768z M116.452,93.888c0,4.235-3.446,7.681-7.682,7.681H15.835     c-4.235,0-7.681-3.445-7.681-7.681v-56.17c0-4.235,3.446-7.681,7.681-7.681h2.979h18.085h71.872c4.235,0,7.682,3.445,7.682,7.681     V93.888z"/><path className="st0" d="M77.111,30.952c-19.217,0-34.851,15.634-34.851,34.851s15.634,34.851,34.851,34.851     s34.851-15.634,34.851-34.851S96.328,30.952,77.111,30.952z M77.111,98.654c-18.114,0-32.851-14.737-32.851-32.851     s14.737-32.851,32.851-32.851s32.851,14.737,32.851,32.851S95.226,98.654,77.111,98.654z"/><path className="st0" d="M99.812,56.463c0.716,1.736,1.229,3.559,1.528,5.416c0.079,0.492,0.504,0.841,0.986,0.841     c0.053,0,0.105-0.004,0.159-0.013c0.546-0.087,0.917-0.601,0.829-1.146c-0.323-2.01-0.879-3.982-1.653-5.86     c-0.21-0.511-0.798-0.755-1.306-0.543C99.845,55.368,99.602,55.953,99.812,56.463z"/><path className="st0" d="M101.651,65.803c0,13.531-11.009,24.54-24.54,24.54c-13.532,0-24.541-11.009-24.541-24.54     c0-13.532,11.009-24.541,24.541-24.541c8.583,0,16.398,4.367,20.906,11.683c0.29,0.471,0.905,0.617,1.376,0.327     c0.471-0.29,0.616-0.906,0.327-1.375c-4.876-7.911-13.327-12.634-22.609-12.634c-14.634,0-26.541,11.906-26.541,26.541     s11.906,26.54,26.541,26.54c14.634,0,26.54-11.906,26.54-26.54c0-0.552-0.447-1-1-1S101.651,65.251,101.651,65.803z"/></g><circle className="st7" cx="77.111" cy="65.803" r="19.459"/><ellipse className="st6" cx="77.111" cy="65.803" rx="9.527" ry="9.527" transform="matrix(0.9732 -0.2298 0.2298 0.9732 -13.0556 19.4768)"/><path className="st3" d="M81.553,59.905c-1.002,0-1.815,0.812-1.815,1.815s0.812,1.815,1.815,1.815c1.002,0,1.815-0.812,1.815-1.815    S82.556,59.905,81.553,59.905z"/><path className="st3" d="M42.665,35.165H30.154c-1.058,0-1.915,0.857-1.915,1.915v1.383c0,1.058,0.857,1.915,1.915,1.915h12.511    c1.058,0,1.915-0.857,1.915-1.915V37.08C44.579,36.022,43.722,35.165,42.665,35.165z"/><circle className="st2" cx="23.558" cy="38.058" r="2.213"/></g></g></svg>