<?xml version="1.0" ?><!DOCTYPE svg  PUBLIC '-//W3C//DTD SVG 1.1//EN'  'http://www.w3.org/Graphics/SVG/1.1/DTD/svg11.dtd'><svg enable-background="new 0 0 32 32" height="32px" id="Layer_1" version="1.1" viewBox="0 0 32 32" width="32px" xml:space="preserve" xmlns="http://www.w3.org/2000/svg" xmlns:xlink="http://www.w3.org/1999/xlink"><g id="key_x2C__password"><g><g><path d="M30.5,4.5c0-0.55-0.45-1-1-1h-27c-0.55,0-1,0.45-1,1v23c0,0.55,0.45,1,1,1h27c0.55,0,1-0.45,1-1V4.5z" fill="#F2F4F5"/><path d="M2,7V4.5C2,3.947,1.947,4,2.5,4h27C30.053,4,30,3.947,30,4.5V7H2z" fill="#A9E4FF"/><rect fill="#FFFFFF" height="1" width="28" x="2" y="4"/><circle cx="7.5" cy="5.5" fill="#455A64" r="0.5"/><circle cx="5.5" cy="5.5" fill="#455A64" r="0.5"/><circle cx="3.5" cy="5.5" fill="#455A64" r="0.5"/><rect fill="#FFFFFF" height="1" width="28" x="2" y="8"/><path d="M30.5,8h-29C1.224,8,1,7.776,1,7.5S1.224,7,1.5,7h29C30.776,7,31,7.224,31,7.5S30.776,8,30.5,8z" fill="#455A64"/><path d="M29.5,29h-27C1.673,29,1,28.327,1,27.5v-23C1,3.673,1.673,3,2.5,3h27C30.327,3,31,3.673,31,4.5v23     C31,28.327,30.327,29,29.5,29z M2.5,4C2.225,4,2,4.224,2,4.5v23C2,27.776,2.225,28,2.5,28h27c0.275,0,0.5-0.224,0.5-0.5v-23     C30,4.224,29.775,4,29.5,4H2.5z" fill="#455A64"/></g></g><g><path d="M25.5,15.5H14.895c-0.91-1.779-2.759-3-4.895-3c-3.037,0-5.5,2.462-5.5,5.5s2.463,5.5,5.5,5.5    c0.252,0,0.498-0.023,0.74-0.056c0.009-0.001,0.018-0.002,0.026-0.004c1.807-0.253,3.328-1.378,4.128-2.94H19.5l1-1h3l1.5,1l2.5-3    L25.5,15.5z M8,19.5c-0.828,0-1.5-0.671-1.5-1.5s0.672-1.5,1.5-1.5s1.5,0.671,1.5,1.5S8.828,19.5,8,19.5z" fill="#FFE0B2"/><g><path d="M5.5,19c0-3.038,2.463-5.5,5.5-5.5c1.26,0,2.412,0.432,3.339,1.146C13.333,13.346,11.771,12.5,10,12.5     c-3.037,0-5.5,2.462-5.5,5.5c0,1.774,0.844,3.347,2.147,4.353C5.931,21.424,5.5,20.264,5.5,19z" fill="#FFFFFF"/></g><path d="M10,24c-3.309,0-6-2.691-6-6c0-2.285,1.27-4.341,3.312-5.365c0.245-0.123,0.547-0.025,0.672,0.223    c0.123,0.247,0.023,0.547-0.223,0.671C6.058,14.382,5,16.096,5,18c0,2.757,2.243,5,5,5c0.229,0,0.453-0.021,0.673-0.051    c1.632-0.229,3.035-1.228,3.776-2.677C14.535,20.105,14.707,20,14.895,20h4.398l0.854-0.854C20.24,19.053,20.367,19,20.5,19h3    c0.099,0,0.195,0.029,0.277,0.084l1.126,0.751l1.92-2.304L25.293,16H14.895c-0.188,0-0.359-0.105-0.445-0.272    C13.589,14.045,11.884,13,10,13c-0.154,0-0.306,0.007-0.456,0.021c-0.254,0.027-0.518-0.178-0.542-0.454    c-0.024-0.275,0.179-0.518,0.454-0.542C9.636,12.008,9.816,12,10,12c2.157,0,4.119,1.142,5.191,3H25.5    c0.133,0,0.26,0.053,0.354,0.146l2,2c0.183,0.183,0.196,0.475,0.03,0.674l-2.5,3c-0.163,0.197-0.448,0.237-0.661,0.096L23.349,20    h-2.642l-0.854,0.854C19.76,20.947,19.633,21,19.5,21h-4.309c-0.921,1.591-2.528,2.68-4.355,2.936C10.543,23.976,10.274,24,10,24z     M8,20c-1.103,0-2-0.897-2-2s0.897-2,2-2s2,0.897,2,2S9.103,20,8,20z M8,17c-0.552,0-1,0.449-1,1s0.448,1,1,1s1-0.449,1-1    S8.552,17,8,17z" fill="#455A64"/><g><path d="M15.5,17.5h9H15.5z" fill="#FFFFFF"/><path d="M24.5,18h-9c-0.276,0-0.5-0.224-0.5-0.5s0.224-0.5,0.5-0.5h9c0.276,0,0.5,0.224,0.5,0.5     S24.776,18,24.5,18z" fill="#455A64"/></g></g></g></svg>