<?xml version="1.0" ?><svg height="512" id="Layer_1" version="1.1" viewBox="0 0 512.00003 512" width="512" xml:space="preserve" xmlns="http://www.w3.org/2000/svg" xmlns:cc="http://creativecommons.org/ns#" xmlns:dc="http://purl.org/dc/elements/1.1/" xmlns:rdf="http://www.w3.org/1999/02/22-rdf-syntax-ns#" xmlns:svg="http://www.w3.org/2000/svg"><defs id="defs7"/><g id="g2988" transform="matrix(0.93750005,0,0,0.93750005,16.000002,15.999987)"><g id="g9623" transform="translate(3333.3284,2685.1297)"><path d="m -3284.5922,-2567.6041 c -26.8728,0 -48.7362,21.8951 -48.7362,48.768 l 0,273.5042 c 0,26.8718 21.8634,48.768 48.7362,48.768 l 414.4957,0 c 26.8729,0 48.7681,-21.8951 48.7681,-48.768 l 0,-273.5042 c 0,-26.8739 -21.8952,-48.768 -48.7681,-48.768 l -155.9357,0 a 8.1928913,8.1928913 0 1 0 0,16.384 l 155.9357,0 c 18.0777,0 32.384,14.3063 32.384,32.384 l 0,273.5042 c 0,18.0767 -14.3063,32.384 -32.384,32.384 l -414.4957,0 c -18.0787,0 -32.3523,-14.3073 -32.3523,-32.384 l 0,-273.5042 c 0,-18.0787 14.2736,-32.384 32.3523,-32.384 l 152.6723,0 a 8.1928913,8.1928913 0 1 0 0,-16.384 l -152.6723,0 z" id="rect3084" style="font-size:medium;font-style:normal;font-variant:normal;font-weight:normal;font-stretch:normal;text-indent:0;text-align:start;text-decoration:none;line-height:normal;letter-spacing:normal;word-spacing:normal;text-transform:none;direction:ltr;block-progression:tb;writing-mode:lr-tb;text-anchor:start;baseline-shift:baseline;color:#000000;fill:#37484a;fill-opacity:1;stroke:none;stroke-width:16.00014114;marker:none;visibility:visible;display:inline;overflow:visible;enable-background:accumulate;font-family:Sans;-inkscape-font-specification:Sans"/><path d="m -3096.6388,-2661.6955 c -12.1669,0 -20.1197,11.5877 -19.5201,23.7123 l 5.024,101.8568 c 0.2758,5.5756 1.9097,10.8003 5.0561,15.1041 3.1463,4.3039 8.3909,7.7761 14.4641,7.7761 l 26.4322,0 c 6.0808,0 11.3323,-3.5179 14.4322,-7.8081 3.0998,-4.2899 4.6737,-9.4486 5.056,-14.912 l 7.1361,-101.857 c 0.8625,-12.3026 -7.3042,-23.8722 -19.4882,-23.8722 l -38.5924,0 z" id="rect3109" style="font-size:medium;font-style:normal;font-variant:normal;font-weight:normal;font-stretch:normal;text-indent:0;text-align:start;text-decoration:none;line-height:normal;letter-spacing:normal;word-spacing:normal;text-transform:none;direction:ltr;block-progression:tb;writing-mode:lr-tb;text-anchor:start;baseline-shift:baseline;color:#000000;fill:#37484a;fill-opacity:1;stroke:none;stroke-width:16;marker:none;visibility:visible;display:inline;overflow:visible;enable-background:accumulate;font-family:Sans;-inkscape-font-specification:Sans"/><path d="m -3010.654,-2474.8481 a 8.1928912,8.1928912 0 1 0 0,16.3841 l 134.8171,0 a 8.1928912,8.1928912 0 1 0 0,-16.3841 l -134.8171,0 z" id="rect6287-6-2-2-2-1-4" style="font-size:medium;font-style:normal;font-variant:normal;font-weight:normal;font-stretch:normal;text-indent:0;text-align:start;text-decoration:none;line-height:normal;letter-spacing:normal;word-spacing:normal;text-transform:none;direction:ltr;block-progression:tb;writing-mode:lr-tb;text-anchor:start;baseline-shift:baseline;color:#000000;fill:#1b8e99;fill-opacity:1;stroke:none;stroke-width:16;marker:none;visibility:visible;display:inline;overflow:visible;enable-background:accumulate;font-family:Sans;-inkscape-font-specification:Sans"/><path d="m -3010.654,-2408.8403 a 8.1928912,8.1928912 0 1 0 0,16.3842 l 134.8171,0 a 8.1928912,8.1928912 0 1 0 0,-16.3842 l -134.8171,0 z" id="rect6287-6-2-2-2-1-4-0" style="font-size:medium;font-style:normal;font-variant:normal;font-weight:normal;font-stretch:normal;text-indent:0;text-align:start;text-decoration:none;line-height:normal;letter-spacing:normal;word-spacing:normal;text-transform:none;direction:ltr;block-progression:tb;writing-mode:lr-tb;text-anchor:start;baseline-shift:baseline;color:#000000;fill:#1b8e99;fill-opacity:1;stroke:none;stroke-width:16;marker:none;visibility:visible;display:inline;overflow:visible;enable-background:accumulate;font-family:Sans;-inkscape-font-specification:Sans"/><path d="m -3168.3756,-2508.6989 c -55.5437,0 -54.8564,45.9833 -54.8564,45.9833 l -0.3502,24.451 c -4.538,-0.058 -5.6207,4.2026 -5.6207,12.7092 0,12.7502 8.2113,26.1154 15.6613,33.0071 2.5247,10.0237 7.3526,18.8407 13.8434,25.5685 -22.2731,13.0282 -49.0138,21.7903 -66.4314,30.5554 -17.6566,8.8774 -32.4735,42.3012 -32.4735,68.9499 34.5647,15.4441 101.5379,17.7628 130.2275,17.7628 28.6895,0 95.6627,-2.3187 130.2274,-17.7628 0,-26.6487 -14.8169,-60.0725 -32.4735,-68.9499 -17.4143,-8.7635 -44.1442,-17.5312 -66.4147,-30.5554 6.4908,-6.7278 11.3187,-15.5448 13.8434,-25.5685 7.45,-6.8917 15.6613,-20.2569 15.6613,-33.0071 0,-8.5066 -1.0995,-12.7674 -5.6374,-12.7092 l -0.3336,-24.451 c 0,0 0.6707,-45.9833 -54.8729,-45.9833 z" id="path13-27-4-4-0-4-6-14" style="fill:#1b8e99;fill-opacity:1;stroke:none"/><path d="m -3010.654,-2342.8325 a 8.1928912,8.1928912 0 1 0 0,16.3842 l 134.8171,0 a 8.1928912,8.1928912 0 1 0 0,-16.3842 l -134.8171,0 z" id="path9621" style="font-size:medium;font-style:normal;font-variant:normal;font-weight:normal;font-stretch:normal;text-indent:0;text-align:start;text-decoration:none;line-height:normal;letter-spacing:normal;word-spacing:normal;text-transform:none;direction:ltr;block-progression:tb;writing-mode:lr-tb;text-anchor:start;baseline-shift:baseline;color:#000000;fill:#1b8e99;fill-opacity:1;stroke:none;stroke-width:16;marker:none;visibility:visible;display:inline;overflow:visible;enable-background:accumulate;font-family:Sans;-inkscape-font-specification:Sans"/></g></g></svg>