<?xml version="1.0" ?><svg id="Layer_1" style="enable-background:new 0 0 512 512;" version="1.1" viewBox="0 0 512 512" xml:space="preserve" xmlns="http://www.w3.org/2000/svg" xmlns:xlink="http://www.w3.org/1999/xlink"><style type="text/css">
	.st0{fill:#494949;}
	.st1{fill:#FFDA00;}
</style><g><path className="st0" d="M194.2,507.4c-0.6,0-1.3-0.1-1.9-0.4l-64.6-26.3c-2.3-1-3.6-3.5-2.9-5.9l12-44.3   c-10.6-7.3-20.8-15.9-30.3-25.5c-8.4-8.5-15.9-17.5-22.4-26.7l-44.2,12.7c-2.4,0.7-5-0.5-6-2.9L6.7,323.9c-1-2.3-0.1-5,2.1-6.3   l39.9-22.8c-4.6-24.6-4.8-49.5-0.5-74.2L8,198.4c-2.2-1.2-3.2-3.9-2.2-6.3L32,127.4c1-2.3,3.5-3.6,6-2.9l44.3,12.1   c1.7-2.4,3.3-4.6,4.9-6.7c3.1-4.3,6.7-8.6,10.5-12.9l0.2-0.3c0.7-0.8,1.3-1.5,2-2.2c2.8-3.1,5.7-6.1,8.7-9c0.9-0.9,2-2,3.2-3.1   l0.3-0.3c0.6-0.6,1.3-1.3,2.1-2c0.2-0.1,0.4-0.3,0.6-0.4c7-6.3,13.3-11.4,19.5-15.8l-12.7-44.2c-0.7-2.4,0.5-5,2.9-6l64.3-27.2   c2.3-1,5-0.1,6.3,2.1l22.9,39.8c2.6-0.4,5.3-0.7,7.8-1c4.9-0.5,9.5-1,14.1-2.3c0.4-0.1,0.9-0.2,1.4-0.2h0.2c2.5,0,4.9,0,7.4,0   c2.5,0,5,0,7.5,0c2.5,0,5,0.2,7.3,0.4c1.3,0.1,2.5,0.2,3.8,0.3c0.5,0,1,0.1,1.4,0.1c0.2,0,0.4,0.1,0.6,0.1c2.7,0.2,5.4,0.5,8.1,0.8   c0.8,0.1,1.6,0.2,2.4,0.3c0.8,0.1,1.5,0.2,2.1,0.4c0.4,0.1,0.7,0.2,0.9,0.2c0.1,0,0.2,0,0.2,0c0.9,0.1,1.9,0.2,3,0.3   c1.9,0.1,4,0.3,6.3,0.9l21.9-40c1.2-2.2,3.9-3.2,6.2-2.3l40.5,15.9l24.2,9.9c2.3,1,3.6,3.5,2.9,6l-12.1,44.3   c20.6,14.1,38.3,31.6,52.8,52.1l44.2-12.7c2.4-0.7,5,0.5,6,2.9l27.2,64.4c1,2.3,0.1,5-2.1,6.3l-40,22.8c4.6,24.6,4.8,49.5,0.5,74.1   l40.2,22.2c2.2,1.2,3.2,3.9,2.2,6.3l-26.3,64.7c-1,2.3-3.5,3.6-5.9,2.9l-44.3-12.1c-5.7,8.2-12.3,16.4-20.3,24.9   c-10.1,10.7-20.8,20-31.8,27.9l12.7,44.2c0.7,2.4-0.5,5-2.9,6L324,506.2c-2.3,1-5,0.1-6.3-2.1l-22.8-39.9   c-24.6,4.6-49.5,4.8-74.1,0.5l-22.3,40.2C197.6,506.5,195.9,507.4,194.2,507.4z M135.5,473.2l56.4,22.9l21.9-39.4   c1-1.9,3.2-2.9,5.3-2.5c25.7,4.9,51.7,4.7,77.3-0.6c2.1-0.4,4.3,0.5,5.3,2.4l22.4,39.2l56.2-23.7L368,428.2c-0.6-2.1,0.2-4.3,2-5.5   c11.5-7.8,22.6-17.4,33.1-28.5c8.5-9.1,15.5-17.8,21.3-26.5c1.2-1.8,3.4-2.6,5.5-2.1l43.5,11.9l23-56.5l-39.5-21.8   c-1.9-1-2.9-3.2-2.5-5.3c4.9-25.7,4.7-51.7-0.5-77.4c-0.4-2.1,0.5-4.3,2.4-5.3l39.2-22.4l-23.7-56.2l-43.4,12.4   c-2.1,0.6-4.3-0.2-5.5-2c-14.8-21.6-33.3-39.9-55.1-54.4c-1.8-1.2-2.6-3.4-2.1-5.5l11.9-43.5l-20.1-8.2l-36.4-14.3l-21.9,40   c-0.9,1.6-2.6,2.6-4.4,2.6c-0.9,0-1.9-0.2-2.6-0.7c-1.9-1.2-4-1.3-6.6-1.5c-1.2-0.1-2.4-0.2-3.6-0.3c-0.8-0.1-1.5-0.2-2-0.4   c-0.3-0.1-0.7-0.2-0.9-0.2c-0.9-0.1-1.7-0.2-2.5-0.3c-2.6-0.3-5.1-0.6-7.6-0.7c-0.5,0-0.9-0.1-1.3-0.1c-0.2,0-0.4-0.1-0.7-0.1   c-1.2-0.1-2.6-0.2-4-0.3c-2.3-0.2-4.4-0.4-6.5-0.4c-2.5,0-5,0-7.5,0c-2.3,0-4.6,0-7,0c-5.2,1.4-10.2,1.9-15.1,2.5   c-3.6,0.4-7.1,0.8-10.5,1.5c-2.1,0.4-4.3-0.5-5.3-2.4l-22.4-39L132.6,41L145,84.5c0.6,2.1-0.2,4.3-2,5.5   c-7,4.8-14.1,10.4-22.1,17.7c-0.3,0.2-0.5,0.4-0.8,0.6c-0.2,0.2-0.5,0.5-0.7,0.7l-0.5,0.5c-0.1,0.1-0.1,0.1-0.2,0.1   c-1.1,1-2.1,2-3,3c-2.9,2.8-5.7,5.7-8.4,8.6c-0.7,0.8-1.3,1.4-1.9,2.1l-0.2,0.3c-3.6,4.1-7,8.2-9.9,12.2c-2.2,2.9-4.5,6-6.7,9.3   c-1.2,1.8-3.4,2.6-5.5,2.1l-43.5-11.9l-22.9,56.5l39.4,21.8c1.9,1,2.9,3.2,2.5,5.3c-4.8,25.7-4.7,51.8,0.6,77.4   c0.4,2.1-0.5,4.3-2.4,5.3l-39.2,22.4l23.7,56.1l43.4-12.4c2.1-0.6,4.3,0.2,5.5,2c6.6,9.7,14.4,19.2,23.3,28.2   c10,10,20.6,18.8,31.8,26.2c1.8,1.2,2.6,3.4,2.1,5.5L135.5,473.2z"/></g><circle className="st1" cx="256" cy="207" r="54"/><path className="st1" d="M381.3,317.3c-6.3,12.8-14.4,24.2-23.8,34.2c-38.2,40.5-98.7,55.7-153.4,33.5c-18-7.3-33.6-18-46.4-30.9  c-10.7-10.9-19.5-23.3-26.1-36.8c30.5-34.5,75.1-56.3,124.8-56.3C306.2,261,350.8,282.8,381.3,317.3z"/><g><path className="st0" d="M256.4,400.3c-18.4,0-36.7-3.6-54-10.6c-18.1-7.3-34.3-18.1-48.1-32c-11-11.2-20.1-24-27-38.2   c-17.9-36.7-19.4-79.5-4-117.3c2.2-5.3,4.9-10.8,8.7-17.3c1.2-2.1,2.5-4.4,4.2-7c1.2-1.9,2.4-3.6,3.7-5.3l0.1-0.2   c0.8-1.2,1.7-2.3,2.6-3.5l0.4-0.5c0,0,0-0.1,0.1-0.1c1.7-2.1,3.5-4.3,5.3-6.5c27.3-31.2,66.8-49.2,108.3-49.2   c4.1,0,7.8,0.1,11.2,0.4c2.7,0.2,5.5,0.5,8.2,0.9c0.9,0.1,1.8,0.2,2.6,0.4c0.4,0.1,0.9,0.1,1.3,0.2c2.4,0.4,4.9,0.8,7.5,1.4   c2,0.5,3.9,0.9,5.9,1.4c1.3,0.4,2.5,0.8,3.6,1.2c0.7,0.3,1.4,0.5,2.1,0.8c0.7,0.2,1.5,0.4,2.2,0.6c2.8,0.8,5.9,1.7,9.1,3.5   c3.7,0.4,6.9,2.3,9.8,4c1,0.6,1.9,1.1,2.7,1.6c31.7,16.4,56.1,43.9,68.7,77.4c12.6,33.8,12.1,70.8-1.5,104.3c0,0,0,0,0,0   c-1.2,3-2.6,6-4,8.8c-6.3,12.8-14.6,24.8-24.6,35.4c-19.7,20.9-45,35.4-73,41.7C277.7,399.1,267,400.3,256.4,400.3z M150.7,174.5   l-0.3,0.4c-0.8,1.1-1.6,2.1-2.3,3.1c0,0,0,0.1-0.1,0.1l-0.1,0.2c-1.2,1.7-2.3,3.2-3.4,4.9c-1.6,2.4-2.8,4.5-3.9,6.5   c-3.6,6.2-6.1,11.3-8.1,16.2c-14.3,35.2-12.9,75,3.8,109.1c6.4,13.2,14.9,25.1,25.2,35.5c12.8,12.9,27.9,23,44.7,29.8   c51.6,21,109.6,8.3,147.8-32.3c9.3-9.9,17-21,22.9-33c1.3-2.6,2.5-5.4,3.7-8.2c26.2-64.5-0.7-137.2-62.5-169.1   c-1.1-0.6-2.2-1.2-3.3-1.9c-2.2-1.3-4.5-2.7-6-2.7h-0.1c-1,0-1.9-0.3-2.7-0.8c-2.3-1.5-4.7-2.2-7.5-3c-0.8-0.2-1.7-0.5-2.5-0.7   c-0.9-0.3-1.8-0.6-2.6-0.9c-1-0.4-1.9-0.7-2.7-0.9c-1.8-0.5-3.7-0.9-5.5-1.4c-2.2-0.5-4.6-0.9-6.8-1.2c-0.4-0.1-0.9-0.1-1.4-0.2   c-0.7-0.1-1.5-0.2-2.2-0.3c-0.1,0-0.1,0-0.2,0c-2.5-0.4-5.1-0.6-7.6-0.8c-3.1-0.3-6.5-0.4-10.4-0.4c-38.6,0-75.3,16.7-100.7,45.8   C154,170.4,152.4,172.4,150.7,174.5z M385.2,308.8L385.2,308.8L385.2,308.8z"/></g><g><g><path className="st0" d="M256,363c-2.8,0-5-2.2-5-5v-10c0-2.8,2.2-5,5-5c2.8,0,5,2.2,5,5v10C261,360.8,258.8,363,256,363z M256,333    c-2.8,0-5-2.2-5-5v-10c0-2.8,2.2-5,5-5c2.8,0,5,2.2,5,5v10C261,330.8,258.8,333,256,333z M256,303c-2.8,0-5-2.2-5-5v-10    c0-2.8,2.2-5,5-5c2.8,0,5,2.2,5,5v10C261,300.8,258.8,303,256,303z"/></g></g><g><path className="st1" d="M255.9,435c-2.8,0-5-2.2-5-5c0-2.8,2.2-5,5-5c0,0,0.1,0,0.1,0c3.2,0,6.5-0.1,9.8-0.3c2.7-0.1,5.1,2,5.3,4.7   c0.2,2.8-2,5.1-4.7,5.3c-3.4,0.2-6.9,0.3-10.3,0.3C256,435,255.9,435,255.9,435z M255.9,429.3v0.7V429.3L255.9,429.3z M235.7,433.8   c-0.2,0-0.4,0-0.6,0c-3.4-0.4-6.9-0.9-10.3-1.5c-2.7-0.5-4.5-3.1-4.1-5.8c0.5-2.7,3.1-4.5,5.8-4.1c3.2,0.6,6.5,1,9.7,1.4   c2.7,0.3,4.7,2.8,4.4,5.5C240.4,432,238.2,433.8,235.7,433.8z M286.1,432.4c-2.4,0-4.5-1.7-4.9-4.1c-0.5-2.7,1.3-5.3,4.1-5.8   c3.2-0.6,6.5-1.2,9.6-2c2.7-0.6,5.4,1,6,3.7c0.6,2.7-1,5.4-3.7,6c-3.4,0.8-6.8,1.5-10.2,2.1C286.7,432.4,286.4,432.4,286.1,432.4z    M206,427.7c-0.5,0-1-0.1-1.4-0.2c-3.3-1-6.6-2.1-9.9-3.3c-2.6-0.9-3.9-3.8-3-6.4s3.8-3.9,6.4-3c3.1,1.1,6.2,2.2,9.3,3.1   c2.6,0.8,4.1,3.6,3.4,6.2C210.2,426.3,208.2,427.7,206,427.7z M315.4,424.6c-2,0-4-1.3-4.7-3.3c-0.9-2.6,0.4-5.5,3-6.4   c3.1-1.1,6.1-2.3,9.1-3.6c2.5-1.1,5.5,0.1,6.6,2.6c1.1,2.5-0.1,5.5-2.6,6.6c-3.2,1.4-6.4,2.7-9.7,3.9   C316.6,424.5,316,424.6,315.4,424.6z M177.9,416.5c-0.8,0-1.5-0.2-2.2-0.5c-3.1-1.5-6.2-3.2-9.1-4.9c-2.4-1.4-3.2-4.4-1.8-6.8   c1.4-2.4,4.4-3.2,6.8-1.8c2.8,1.6,5.7,3.2,8.6,4.7c2.5,1.2,3.5,4.2,2.2,6.7C181.4,415.5,179.7,416.5,177.9,416.5z M342.9,411.8   c-1.7,0-3.4-0.9-4.3-2.5c-1.4-2.4-0.6-5.4,1.8-6.8c2.8-1.6,5.6-3.4,8.4-5.2c2.3-1.5,5.4-0.9,6.9,1.4c1.5,2.3,0.9,5.4-1.4,6.9   c-2.9,1.9-5.9,3.7-8.9,5.5C344.7,411.5,343.8,411.8,342.9,411.8z M152.1,400.6c-1,0-2.1-0.3-3-1c-2.8-2.1-5.5-4.2-8.2-6.5   c-2.1-1.8-2.4-4.9-0.6-7c1.8-2.1,4.9-2.4,7-0.6c2.5,2.1,5.1,4.2,7.7,6.1c2.2,1.7,2.7,4.8,1,7C155.1,399.9,153.6,400.6,152.1,400.6z    M367.8,394.3c-1.4,0-2.8-0.6-3.8-1.8c-1.8-2.1-1.5-5.3,0.6-7c2.5-2.1,5-4.3,7.3-6.5c2-1.9,5.2-1.8,7.1,0.2c1.9,2,1.8,5.2-0.2,7.1   c-2.5,2.4-5.1,4.7-7.8,6.9C370.1,394,368.9,394.3,367.8,394.3z M129.4,380.4c-1.3,0-2.7-0.5-3.6-1.6c-2.4-2.5-4.7-5.1-6.9-7.8   c-1.8-2.1-1.5-5.3,0.6-7s5.3-1.5,7,0.6c2.1,2.5,4.3,5,6.5,7.3c1.9,2,1.8,5.2-0.2,7.1C131.9,380,130.7,380.4,129.4,380.4z    M389.2,372.9c-1.1,0-2.3-0.4-3.2-1.2c-2.1-1.8-2.4-4.9-0.6-7c2.1-2.5,4.2-5.1,6.1-7.7c1.7-2.2,4.8-2.7,7-1c2.2,1.7,2.7,4.8,1,7   c-2.1,2.8-4.2,5.5-6.5,8.2C392.1,372.3,390.7,372.9,389.2,372.9z M110.6,356.6c-1.6,0-3.2-0.8-4.2-2.3c-1.9-2.9-3.7-5.9-5.5-8.9   c-1.4-2.4-0.6-5.4,1.8-6.8c2.4-1.4,5.4-0.6,6.8,1.8c1.6,2.8,3.4,5.6,5.2,8.4c1.5,2.3,0.9,5.4-1.4,6.9   C112.5,356.4,111.6,356.6,110.6,356.6z M406.7,348.1c-0.9,0-1.7-0.2-2.5-0.7c-2.4-1.4-3.2-4.4-1.8-6.8c1.6-2.8,3.2-5.7,4.7-8.6   c1.2-2.5,4.2-3.5,6.7-2.2c2.5,1.2,3.5,4.2,2.2,6.7c-1.6,3.1-3.2,6.2-4.9,9.1C410.1,347.2,408.4,348.1,406.7,348.1z M96.2,329.9   c-1.9,0-3.8-1.1-4.6-3c-1.4-3.2-2.7-6.4-3.9-9.7c-0.9-2.6,0.4-5.5,3-6.4c2.6-0.9,5.5,0.4,6.4,3c1.1,3.1,2.3,6.1,3.6,9.1   c1.1,2.5-0.1,5.5-2.6,6.6C97.5,329.8,96.9,329.9,96.2,329.9z M419.5,320.7c-0.6,0-1.1-0.1-1.7-0.3c-2.6-0.9-3.9-3.8-3-6.4   c1.1-3.1,2.2-6.2,3.1-9.3c0.8-2.6,3.6-4.1,6.2-3.4c2.6,0.8,4.1,3.6,3.4,6.2c-1,3.3-2.1,6.6-3.3,9.9   C423.5,319.4,421.5,320.7,419.5,320.7z M86.6,301.1c-2.3,0-4.3-1.6-4.9-3.9c-0.8-3.4-1.5-6.8-2.1-10.2c-0.5-2.7,1.3-5.3,4.1-5.8   c2.7-0.5,5.3,1.3,5.8,4.1c0.6,3.2,1.2,6.5,2,9.6c0.6,2.7-1,5.4-3.7,6C87.4,301.1,87,301.1,86.6,301.1z M427.4,291.4   c-0.3,0-0.6,0-0.9-0.1c-2.7-0.5-4.5-3.1-4.1-5.8c0.6-3.2,1-6.5,1.4-9.7c0.3-2.7,2.8-4.7,5.5-4.4c2.7,0.3,4.7,2.8,4.4,5.5   c-0.4,3.4-0.9,6.9-1.5,10.3C431.9,289.7,429.7,291.4,427.4,291.4z M82.3,271.1c-2.6,0-4.8-2.1-5-4.7C77.1,263,77,259.5,77,256v-0.3   c0-2.8,2.2-5,5-5s5,2.2,5,5v0.3c0,3.2,0.1,6.6,0.3,9.8c0.2,2.8-1.9,5.1-4.7,5.3C82.5,271.1,82.4,271.1,82.3,271.1z M430,261.2   c-2.8,0-5-2.2-5-5V256c0-3.2-0.1-6.5-0.3-9.7c-0.2-2.8,2-5.1,4.7-5.3c2.8-0.2,5.1,2,5.3,4.7c0.2,3.4,0.3,6.8,0.3,10.2v0.2   C435,258.9,432.8,261.2,430,261.2z M83.2,240.5c-0.2,0-0.4,0-0.6,0c-2.7-0.3-4.7-2.8-4.4-5.5c0.4-3.4,0.9-6.9,1.5-10.3   c0.5-2.7,3.1-4.5,5.8-4.1s4.5,3.1,4.1,5.8c-0.6,3.2-1,6.5-1.4,9.7C87.9,238.6,85.7,240.5,83.2,240.5z M427.4,230.9   c-2.4,0-4.5-1.7-4.9-4.1c-0.6-3.2-1.2-6.4-2-9.6c-0.6-2.7,1-5.4,3.7-6c2.7-0.6,5.4,1,6,3.7c0.8,3.4,1.5,6.8,2.1,10.2   c0.5,2.7-1.3,5.3-4.1,5.8C428,230.9,427.7,230.9,427.4,230.9z M89.4,210.8c-0.5,0-1-0.1-1.4-0.2c-2.6-0.8-4.1-3.6-3.3-6.2   c1-3.3,2.1-6.6,3.3-9.9c0.9-2.6,3.8-3.9,6.4-3c2.6,0.9,3.9,3.8,3,6.4c-1.1,3.1-2.2,6.2-3.1,9.3C93.5,209.4,91.5,210.8,89.4,210.8z    M419.6,201.6c-2,0-4-1.3-4.7-3.3c-1.1-3.1-2.3-6.2-3.6-9.1c-1.1-2.5,0.1-5.5,2.6-6.6c2.5-1.1,5.5,0.1,6.6,2.6   c1.4,3.2,2.7,6.4,3.8,9.7c0.9,2.6-0.4,5.5-3,6.4C420.8,201.5,420.2,201.6,419.6,201.6z M100.6,182.6c-0.8,0-1.5-0.2-2.3-0.5   c-2.5-1.2-3.5-4.3-2.2-6.7c1.6-3.1,3.2-6.2,5-9.1c1.4-2.4,4.4-3.2,6.8-1.8c2.4,1.4,3.2,4.4,1.8,6.8c-1.6,2.8-3.2,5.7-4.7,8.6   C104.2,181.6,102.4,182.6,100.6,182.6z M406.8,174.1c-1.7,0-3.4-0.9-4.3-2.5c-1.6-2.8-3.4-5.6-5.2-8.4c-1.5-2.3-0.9-5.4,1.4-6.9   c2.3-1.5,5.4-0.9,6.9,1.4c1.9,2.9,3.7,5.9,5.5,8.9c1.4,2.4,0.6,5.4-1.8,6.8C408.5,173.9,407.6,174.1,406.8,174.1z M116.6,156.9   c-1,0-2.1-0.3-3-1c-2.2-1.7-2.7-4.8-1-7c2.1-2.8,4.2-5.5,6.5-8.1c1.8-2.1,4.9-2.4,7-0.6c2.1,1.8,2.4,4.9,0.6,7   c-2.1,2.5-4.2,5.1-6.1,7.7C119.6,156.2,118.1,156.9,116.6,156.9z M389.4,149.3c-1.4,0-2.8-0.6-3.8-1.8c-2.1-2.5-4.3-5-6.5-7.3   c-1.9-2-1.8-5.2,0.2-7.1c2-1.9,5.2-1.8,7.1,0.2c2.4,2.5,4.7,5.1,6.9,7.8c1.8,2.1,1.5,5.3-0.6,7   C391.7,148.9,390.5,149.3,389.4,149.3z M136.8,134.3c-1.3,0-2.7-0.5-3.6-1.6c-1.9-2-1.8-5.2,0.2-7.1c2.5-2.4,5.1-4.7,7.8-6.9   c2.1-1.8,5.3-1.5,7,0.6c1.8,2.1,1.5,5.3-0.6,7c-2.5,2.1-5,4.3-7.4,6.5C139.2,133.8,138,134.3,136.8,134.3z M368,127.8   c-1.1,0-2.3-0.4-3.2-1.2c-2.5-2.1-5.1-4.2-7.7-6.1c-2.2-1.7-2.7-4.8-1-7c1.7-2.2,4.8-2.7,7-1c2.8,2.1,5.5,4.2,8.2,6.5   c2.1,1.8,2.4,4.9,0.6,7C370.8,127.2,369.4,127.8,368,127.8z M160.6,115.5c-1.6,0-3.2-0.8-4.2-2.3c-1.5-2.3-0.9-5.4,1.4-6.9   c2.9-1.9,5.9-3.7,8.9-5.5c2.4-1.4,5.4-0.6,6.8,1.8s0.6,5.4-1.8,6.8c-2.8,1.6-5.6,3.4-8.4,5.2C162.5,115.2,161.5,115.5,160.6,115.5z    M343.2,110.4c-0.9,0-1.7-0.2-2.5-0.7c-2.8-1.6-5.7-3.2-8.6-4.7c-2.5-1.2-3.5-4.3-2.2-6.7c1.2-2.5,4.3-3.5,6.7-2.2   c3.1,1.6,6.2,3.2,9.1,5c2.4,1.4,3.2,4.4,1.8,6.8C346.6,109.5,344.9,110.4,343.2,110.4z M187.3,101.1c-1.9,0-3.8-1.1-4.6-3   c-1.1-2.5,0.1-5.5,2.6-6.6c3.2-1.4,6.4-2.7,9.7-3.8c2.6-0.9,5.5,0.4,6.4,3s-0.4,5.5-3,6.4c-3.1,1.1-6.1,2.3-9.2,3.6   C188.6,101,187.9,101.1,187.3,101.1z M315.7,97.5c-0.6,0-1.1-0.1-1.7-0.3c-3.1-1.1-6.2-2.2-9.3-3.1c-2.6-0.8-4.1-3.6-3.4-6.2   c0.8-2.6,3.6-4.1,6.2-3.4c3.3,1,6.6,2.1,9.9,3.3c2.6,0.9,3.9,3.8,3,6.4C319.7,96.3,317.8,97.5,315.7,97.5z M216.1,91.6   c-2.3,0-4.3-1.6-4.9-3.9c-0.6-2.7,1-5.4,3.7-6c3.4-0.8,6.8-1.5,10.2-2.1c2.7-0.5,5.3,1.4,5.8,4.1c0.5,2.7-1.4,5.3-4.1,5.8   c-3.2,0.6-6.5,1.2-9.6,2C216.9,91.6,216.5,91.6,216.1,91.6z M286.4,89.7c-0.3,0-0.6,0-0.9-0.1c-3.2-0.6-6.5-1-9.7-1.4   c-2.7-0.3-4.7-2.8-4.4-5.5c0.3-2.7,2.8-4.7,5.5-4.4c3.4,0.4,6.9,0.9,10.3,1.5c2.7,0.5,4.5,3.1,4.1,5.8   C290.9,87.9,288.8,89.7,286.4,89.7z M246.1,87.3c-2.6,0-4.8-2.1-5-4.7c-0.2-2.8,2-5.1,4.7-5.3c3.4-0.2,6.8-0.3,10.2-0.3h0.2   c2.8,0,5,2.2,5,5s-2.2,5-5,5H256c-3.2,0-6.4,0.1-9.6,0.3C246.3,87.3,246.2,87.3,246.1,87.3z"/></g></svg>