<?xml version="1.0" ?><svg data-name="Layer 1" id="Layer_1" viewBox="0 0 64 64" xmlns="http://www.w3.org/2000/svg"><defs><style>.cls-1{fill:#fc8d98;}.cls-2{fill:#a36ba7;}.cls-3{fill:#fedb8e;}.cls-4{opacity:0.1;}.cls-5{fill:#383f40;}</style></defs><path class="cls-1" d="M55.56076,10.65379C51.734,2.67493,40.81155.86665,34.80824,7.298l-.49351.50982A6.00877,6.00877,0,0,1,25.685,7.80761l-.49347-.50982C19.18927.86687,8.2639,2.675,4.43911,10.654.29177,18.04617,6.28267,29.33763,7.72237,31.255,14.60105,41.74088,26.15921,45.51342,29.99988,46.6c3.84067-1.08655,15.39883-4.85909,22.27781-15.34493C53.72272,29.32063,59.70676,18.05531,55.56076,10.65379Z"/><circle class="cls-2" cx="44" cy="43.59997" r="17"/><path class="cls-3" d="M53,40.6H47v-6a2,2,0,0,0-2-2H43a2,2,0,0,0-2,2v6H35a2,2,0,0,0-2,2v2a2,2,0,0,0,2,2h6v6a2,2,0,0,0,2,2h2a2,2,0,0,0,2-2v-6h6a2,2,0,0,0,2-2v-2A2,2,0,0,0,53,40.6Z"/><path class="cls-4" d="M55.9959,31.5a20.577,20.577,0,0,0-2.66-2.37c1.56-3.13,5.5-12.3,1.79-18.91-1.9971-4.51819-6.61539-7.04859-11.6-7.08a12.636,12.636,0,0,0-9.76,4.45A5.43623,5.43623,0,0,1,29.726,9.32a6.83723,6.83723,0,0,1-5.31-2.87007C18.34414.59281,7.28125,2.83963,3.84594,10.50022-.47407,18.21,5.986,29.89,7.13591,31.42c5.26,8.02,13.25,12.23,19.02,14.35a.69425.69425,0,0,1,.44995.54c2.0309,13.8019,19.32369,19.402,29.08017,9.70972C61.76614,49.51494,62.67117,38.70944,55.9959,31.5Zm-44.35,4.53a30.81815,30.81815,0,0,1-4.46-5.37C6.1259,29.24-.0041,18.23,4.00591,11.08c3.38615-7.39121,14.28119-9.13456,19.63-2.5799a7.04449,7.04449,0,0,0,10.05.0199c5.19579-6.4088,16.12877-5.05986,19.66991,2.62011C56.53594,16.82,53.15593,24.95,51.64592,28.02,39.81585,20.88,23.956,30.31,24.696,44.21A39.419,39.419,0,0,1,11.64592,36.03Zm20.15,19.3c-6.92878-6.09627-6.50632-17.65377-.1498-23.41,8.82985-8.3,26.34975-4.4,27.01979,11.68C58.70528,57.51123,41.82765,64.76166,31.796,55.33Z"/><path class="cls-4" d="M54.00591,40.72a3.01547,3.01547,0,0,0-2.34-1.12h-5c-.22827-4.52734,1.46588-8.48236-5.00007-7.99975A3.002,3.002,0,0,0,38.66594,34.6v5h-5a3.00237,3.00237,0,0,0-3,3v2a3.00879,3.00879,0,0,0,3,3h5v5a3.00879,3.00879,0,0,0,3,3c2.34191.15838,4.865-.08539,5-3.00011l0-4.99989h5a3.00568,3.00568,0,0,0,3-3C54.64024,43.45414,54.87659,41.60973,54.00591,40.72Zm-8.34,4.88a1.00291,1.00291,0,0,0-1,1v6a1.00292,1.00292,0,0,1-1,1h-2a1.01266,1.01266,0,0,1-1-1v-6a1.01532,1.01532,0,0,0-1-1h-6a1.01264,1.01264,0,0,1-1-1v-2a.99245.99245,0,0,1,.56006-.89.92559.92559,0,0,1,.43994-.11h6a1.00524,1.00524,0,0,0,1-1v-6a1.01273,1.01273,0,0,1,1-1l2,0a1.00291,1.00291,0,0,1,1,1v6a1.00292,1.00292,0,0,0,1,1h6a1.00291,1.00291,0,0,1,1,1v2a1.00292,1.00292,0,0,1-1,1Z"/><path class="cls-5" d="M54.68591,29.133c1.56213-3.12958,5.504-12.30762,1.795-18.91687-4.084-8.799-16.64047-10.54262-22.87011-3.10232a5.11688,5.11688,0,0,1-7.6689-.49694,13.514,13.514,0,0,0-11.959-4.05358A13.79728,13.79728,0,0,0,3.58837,10.15945C-.92042,18.19852,5.56005,30.01834,6.9038,31.80789c5.33252,8.121,13.35877,12.41242,19.3606,14.61682A18.01278,18.01278,0,0,0,44.02,61.59891C61.42658,61.485,68.51669,39.342,54.68591,29.133ZM8.53954,30.659C7.478,29.243,1.354,18.2327,5.36279,11.08035c3.51479-7.54169,14.30352-9.04952,19.62887-2.576a7.04,7.04,0,0,0,10.044.01242c5.32662-6.49558,16.13452-4.99041,19.67187,2.62136,3.18665,5.682-.19629,13.81458-1.70337,16.88672C41.166,20.88,25.31183,30.311,26.05077,44.20541,20.45617,42.01682,13.34643,37.97617,8.53954,30.659ZM44.02,59.59891a16.01834,16.01834,0,0,1-16-16c.87912-21.22614,31.12412-21.22,32,.00012A16.01835,16.01835,0,0,1,44.02,59.59891Z"/><path class="cls-5" d="M53.02,39.59891h-5v-5a3.00328,3.00328,0,0,0-3-3h-2a3.00328,3.00328,0,0,0-3,3v5h-5a3.00328,3.00328,0,0,0-3,3v2a3.00329,3.00329,0,0,0,3,3h5v5a3.00329,3.00329,0,0,0,3,3h2a3.00328,3.00328,0,0,0,3-3v-5h5a3.00328,3.00328,0,0,0,3-3v-2A3.00328,3.00328,0,0,0,53.02,39.59891Zm1,5a1.001,1.001,0,0,1-1,1h-6a.99974.99974,0,0,0-1,1v6a1.001,1.001,0,0,1-1,1h-2a1.001,1.001,0,0,1-1-1v-6a.99973.99973,0,0,0-1-1h-6a1.001,1.001,0,0,1-1-1v-2a1.001,1.001,0,0,1,1-1h6a.99974.99974,0,0,0,1-1v-6a1.001,1.001,0,0,1,1-1h2a1.001,1.001,0,0,1,1,1v6a.99974.99974,0,0,0,1,1h6a1.001,1.001,0,0,1,1,1Z"/></svg>