<?xml version="1.0" ?><svg id="Layer_1" style="enable-background:new 0 0 64 64;" version="1.1" viewBox="0 0 64 64" xml:space="preserve" xmlns="http://www.w3.org/2000/svg" xmlns:xlink="http://www.w3.org/1999/xlink"><style type="text/css">
	.st0{fill:#2D3E50;}
	.st1{fill:#2E79BE;}
	.st2{fill:none;}
	.st3{fill:#ED1C24;}
	.st4{fill:#007BBF;}
</style><g><path class="st0" d="M10.8,62.4h-0.2c-2.3,0-3.8-0.6-4.4-1.9c-0.2-0.5-0.6-1.6,0.4-3l3.3-4.4c0.4-0.5,0.6-0.8,0.7-1   c-5.4-5.6-8.3-12.9-8.3-20.7C2.2,15,15.6,1.6,32,1.6c16.4,0,29.8,13.4,29.8,29.8c0,16.4-13.4,29.8-29.8,29.8   c-3.2,0-6.4-0.5-9.4-1.5c-0.1,0-0.2,0.1-0.3,0.1c-1.2,0.6-2.3,1-3.4,1.4c-0.4,0.1-0.8,0.2-1.1,0.3l-0.5,0.1   C15.4,62.1,13.2,62.4,10.8,62.4z M32,5.8C17.9,5.8,6.4,17.3,6.4,31.4c0,6.8,2.7,13.2,7.5,18.1l0.3,0.3l0.2,0.3   c0.5,1,0.6,2.1,0.2,3.3c-0.3,1-0.8,1.6-1.3,2.3l-1.8,2.5c1.8,0,3.5-0.2,4.9-0.6l0.6-0.2c0.3-0.1,0.6-0.1,0.9-0.2   c0.9-0.3,1.9-0.7,2.8-1.1c0.5-0.3,1.3-0.5,2.1-0.6l0.7,0l0.3,0.1c2.7,1,5.6,1.4,8.5,1.4c14.1,0,25.6-11.5,25.6-25.6   C57.6,17.3,46.1,5.8,32,5.8z"/><path class="st4" d="M31.9,48.3v0.3V48.3c-0.8,0-1.5-0.3-2.1-0.9c-0.6-0.6-0.9-1.3-0.9-2.1c0-1.7,1.3-3,3-3c1.6,0,2.9,1.4,2.9,3   C34.9,47,33.5,48.3,31.9,48.3z"/><path class="st4" d="M41,27.9c-1.1,1.4-2.5,2.6-3.8,3.7l-0.3,0.3c-1.9,1.6-2.1,2.1-2.2,4.5c0,0.6,0,1.3,0,1.9   c0,0.4-0.2,0.6-0.6,0.6c-0.3,0-0.6,0-0.9,0h-1.1v0h-2.6c-0.5,0-0.6-0.1-0.6-0.5c-0.1-2,0.1-4,0.5-6c0.2-1.1,0.8-2,1.8-2.9   c0.8-0.8,1.7-1.5,2.5-2.2c0.4-0.3,0.8-0.7,1.2-1l0.1-0.1c0.2-0.2,0.5-0.4,0.7-0.7c1.1-1.3,1-3.1-0.3-4.2c-1-0.9-2.2-1.3-4-1   c-2.1,0.3-3.4,1.5-4.1,3.9c0,0.1,0,0.1,0,0.2c0,0.1,0,0.1,0,0.2c-0.1,0.4-0.3,0.4-0.5,0.4c-1.6-0.2-3.2-0.4-4.8-0.6   c-0.3,0-0.5-0.2-0.5-0.7c0.3-4.1,3.6-7.5,8-8.2c2.5-0.4,4.9-0.3,7,0.5c2.8,1,4.7,2.8,5.7,5.4C42.9,23.7,42.6,25.9,41,27.9z"/></g></svg>