<svg xmlns="http://www.w3.org/2000/svg" width="21" height="23" viewBox="0 0 21 23">
  <defs>
    <style>
      .cls-1 {
        stroke: #404040;
        stroke-linejoin: round;
      }

      .cls-1, .cls-2 {
        stroke-width: 1px;
      }

      .cls-2 {
        fill: none;
        stroke: #252525;
      }

      .cls-3 {
        fill: #252525;
        fill-rule: evenodd;
      }
    </style>
  </defs>
  <ellipse className="cls-2" cx="10" cy="12.5" rx="3.031" ry="3.031"/>
  <ellipse id="Ellipse_1_copy" data-name="Ellipse 1 copy" className="cls-2" cx="10" cy="3.422" rx="2.031" ry="2.016"/>
  <circle id="Ellipse_1_copy_2" data-name="Ellipse 1 copy 2" className="cls-2" cx="2.922" cy="9.484" r="2.016"/>
  <circle id="Ellipse_1_copy_3" data-name="Ellipse 1 copy 3" className="cls-2" cx="4.953" cy="19.578" r="2.016"/>
  <circle id="Ellipse_1_copy_4" data-name="Ellipse 1 copy 4" className="cls-2" cx="16.063" cy="19.578" r="2.031"/>
  <circle id="Ellipse_1_copy_5" data-name="Ellipse 1 copy 5" className="cls-2" cx="17.078" cy="9.484" r="2.016"/>
  <path className="cls-3" d="M4.79,10.969l0.319-.958,3.03,1.01-0.319.958Z"/>
  <path id="Shape_1_copy" data-name="Shape 1 copy" className="cls-3" d="M10,5.44h1.01V9.48H10V5.44Z"/>
  <path id="Shape_1_copy_2" data-name="Shape 1 copy 2" className="cls-3" d="M15.05,10.118L15.552,11,12.045,13,12,12Z"/>
  <path id="Shape_1_copy_3" data-name="Shape 1 copy 3" className="cls-3" d="M15.214,17.827l0.68-.793-3.037-2.766-0.68.793Z"/>
  <path id="Shape_1_copy_4" data-name="Shape 1 copy 4" className="cls-3" d="M5.7,18.587L4.958,17.68l3.294-3.161,0.738,0.907Z"/>
  <ellipse className="cls-2" cx="10" cy="12.5" rx="3.031" ry="3.031"/>
  <ellipse id="Ellipse_1_copy-2" data-name="Ellipse 1 copy" className="cls-2" cx="10" cy="3.422" rx="2.031" ry="2.016"/>
  <circle id="Ellipse_1_copy_2-2" data-name="Ellipse 1 copy 2" className="cls-2" cx="2.922" cy="9.484" r="2.016"/>
  <circle id="Ellipse_1_copy_3-2" data-name="Ellipse 1 copy 3" className="cls-2" cx="4.953" cy="19.578" r="2.016"/>
  <circle id="Ellipse_1_copy_4-2" data-name="Ellipse 1 copy 4" className="cls-2" cx="16.063" cy="19.578" r="2.031"/>
  <circle id="Ellipse_1_copy_5-2" data-name="Ellipse 1 copy 5" className="cls-2" cx="17.078" cy="9.484" r="2.016"/>
  <path className="cls-3" d="M4.79,10.969l0.319-.958,3.03,1.01-0.319.958Z"/>
  <path id="Shape_1_copy-2" data-name="Shape 1 copy" className="cls-3" d="M10,5.44h1.01V9.48H10V5.44Z"/>
  <path id="Shape_1_copy_2-2" data-name="Shape 1 copy 2" className="cls-3" d="M15.05,10.118L15.552,11,12.045,13,12,12Z"/>
  <path id="Shape_1_copy_3-2" data-name="Shape 1 copy 3" className="cls-3" d="M15.214,17.827l0.68-.793-3.037-2.766-0.68.793Z"/>
  <path id="Shape_1_copy_4-2" data-name="Shape 1 copy 4" className="cls-3" d="M5.7,18.587L4.958,17.68l3.294-3.161,0.738,0.907Z"/>
</svg>
