<?xml version="1.0" ?><svg id="Layer_1" style="enable-background:new 0 0 64 64;" version="1.1" viewBox="0 0 64 64" xml:space="preserve" xmlns="http://www.w3.org/2000/svg" xmlns:xlink="http://www.w3.org/1999/xlink"><style type="text/css">
	.st0{fill:#D9DCE1;}
	.st1{fill:#56AAFF;}
	.st2{fill:none;stroke:#D9DCE1;stroke-width:2;stroke-linecap:square;stroke-miterlimit:10;}
	.st3{fill:none;stroke:#D9DCE1;stroke-width:2;stroke-linecap:square;stroke-miterlimit:10;stroke-dasharray:0.1022,6.1323;}
	.st4{fill:#0478ED;}
	.st5{fill:none;stroke:#FFFFFF;stroke-width:2;stroke-linecap:square;stroke-miterlimit:10;}
	.st6{fill:#FFFFFF;}
	.st7{fill:none;stroke:#56AAFF;stroke-width:2;stroke-miterlimit:10;}
	.st8{fill:none;stroke:#FFFFFF;stroke-width:2;stroke-miterlimit:10;}
	.st9{fill:none;stroke:#0478ED;stroke-width:2;stroke-miterlimit:10;stroke-dasharray:2,2;}
	.st10{fill:none;stroke:#FFFFFF;stroke-width:2;stroke-linecap:round;stroke-linejoin:round;stroke-miterlimit:10;}
	.st11{fill:none;stroke:#56AAFF;stroke-width:2;stroke-linecap:round;stroke-miterlimit:10;}
	.st12{fill:none;stroke:#FFFFFF;stroke-width:1.9806;stroke-linecap:square;stroke-linejoin:round;stroke-miterlimit:10;}
	.st13{fill:none;stroke:#D9DCE1;stroke-width:2;stroke-miterlimit:10;}
	.st14{fill:none;stroke:#D9DCE1;stroke-width:2;stroke-linecap:round;stroke-linejoin:round;stroke-miterlimit:10;}
	.st15{fill:none;stroke:#0478ED;stroke-width:2;stroke-miterlimit:10;}
	.st16{fill:none;stroke:#FFFFFF;stroke-width:2;stroke-linecap:round;stroke-miterlimit:10;}
	.st17{fill:none;stroke:#D9DCE1;stroke-width:4;stroke-miterlimit:10;}
	.st18{fill:none;stroke:#0478ED;stroke-width:2;stroke-linecap:round;stroke-miterlimit:10;}
	.st19{fill:none;stroke:#56AAFF;stroke-width:3;stroke-linecap:square;stroke-linejoin:round;stroke-miterlimit:10;}
	.st20{fill:none;stroke:#0478ED;stroke-width:3;stroke-linecap:round;stroke-linejoin:round;stroke-miterlimit:10;}
	.st21{fill:none;stroke:#D9DCE1;stroke-width:11.1549;stroke-linecap:round;stroke-miterlimit:10;}
	.st22{fill:none;stroke:#D9DCE1;stroke-width:3;stroke-miterlimit:10;}
	.st23{fill:none;stroke:#FFFFFF;stroke-width:2.2357;stroke-linecap:square;stroke-miterlimit:10;}
	.st24{fill:none;stroke:#0478ED;stroke-width:3;stroke-miterlimit:10;}
	.st25{fill:none;stroke:#D9DCE1;stroke-width:3;stroke-linecap:round;stroke-linejoin:round;stroke-miterlimit:10;}
	.st26{fill:none;stroke:#56AAFF;stroke-width:5;stroke-miterlimit:10;}
	.st27{fill:none;stroke:#0478ED;stroke-width:4;stroke-miterlimit:10;}
	.st28{fill:none;stroke:#D9DCE1;stroke-width:4;stroke-linecap:round;stroke-miterlimit:10;}
	.st29{fill:none;stroke:#D9DCE1;stroke-width:5;stroke-linecap:round;stroke-linejoin:round;stroke-miterlimit:10;}
	.st30{fill:none;stroke:#56AAFF;stroke-width:5;stroke-linecap:round;stroke-linejoin:round;stroke-miterlimit:10;}
	.st31{fill:none;stroke:#FFFFFF;stroke-width:3;stroke-linecap:round;stroke-miterlimit:10;}
	.st32{fill:none;stroke:#56AAFF;stroke-width:3;stroke-linecap:round;stroke-linejoin:round;stroke-miterlimit:10;}
	.st33{fill:none;stroke:#FFFFFF;stroke-width:4;stroke-miterlimit:10;}
	.st34{fill:none;stroke:#56AAFF;stroke-width:3;stroke-miterlimit:10;}
</style><path class="st1" d="M6,15v33h23c0,1.1,1.3,2,3,2s3-0.9,3-2h23V15H6z"/><path class="st0" d="M36,12c-1.6,0-2.9,0.9-3.6,2.2c-0.2,0.3-0.7,0.3-0.9,0c-0.7-1.3-2-2.2-3.6-2.2H9v33h19c1.6,0,2.9,0.9,3.6,2.2  c0.2,0.3,0.7,0.3,0.9,0c0.7-1.3,2-2.2,3.6-2.2h19V12H36z"/><line class="st12" x1="16" x2="26" y1="20" y2="20"/><line class="st12" x1="16" x2="26" y1="26" y2="26"/><line class="st12" x1="16" x2="26" y1="32" y2="32"/><line class="st12" x1="16" x2="22" y1="38" y2="38"/><line class="st12" x1="38" x2="48" y1="20" y2="20"/><line class="st12" x1="38" x2="48" y1="26" y2="26"/><line class="st12" x1="38" x2="44" y1="32" y2="32"/><polygon class="st4" points="57,53.3 50.3,47.6 54.3,44.9 37,39.7 45.3,55.7 47.3,51.2 54,56.9 "/></svg>