<?xml version="1.0" ?><svg id="Layer_1" style="enable-background:new 0 0 64 64;" version="1.1" viewBox="0 0 64 64" xml:space="preserve" xmlns="http://www.w3.org/2000/svg" xmlns:xlink="http://www.w3.org/1999/xlink"><style type="text/css">
	.st0{fill:#D9DCE1;}
	.st1{fill-rule:evenodd;clip-rule:evenodd;fill:#0478ED;}
	.st2{fill:#0478ED;}
	.st3{fill:none;stroke:#FFFFFF;stroke-width:2;stroke-linecap:square;stroke-miterlimit:10;}
	.st4{fill:#56AAFF;}
	.st5{fill:#FFFFFF;}
	.st6{fill:none;stroke:#D9DCE1;stroke-width:1.8211;stroke-linecap:round;stroke-miterlimit:10;}
	.st7{fill:none;stroke:#56AAFF;stroke-width:3;stroke-miterlimit:10;}
	.st8{fill:none;stroke:#56AAFF;stroke-width:5;stroke-miterlimit:10;}
	.st9{fill:none;stroke:#56AAFF;stroke-width:4;stroke-miterlimit:10;}
	.st10{fill-rule:evenodd;clip-rule:evenodd;fill:#56AAFF;}
	.st11{fill:none;stroke:#0478ED;stroke-width:8;stroke-linecap:round;stroke-miterlimit:10;}
	.st12{fill:none;stroke:#56AAFF;stroke-width:4;stroke-linecap:round;stroke-miterlimit:10;}
	.st13{fill:none;stroke:#56AAFF;stroke-width:3;stroke-linecap:square;stroke-miterlimit:10;}
</style><path class="st4" d="M44,8H20c-1.7,0-3,1.3-3,3v42c0,1.7,1.3,3,3,3h24c1.7,0,3-1.3,3-3V11C47,9.3,45.7,8,44,8z"/><rect class="st0" height="33" width="30" x="17" y="15"/><circle class="st2" cx="32" cy="52" r="1.5"/><circle class="st5" cx="32" cy="26" r="4.5"/><path class="st5" d="M41,38.8c0-1.1-0.3-2-0.9-2.9c-1.5-2.2-4.5-3.2-8.1-3.2c-3.5,0-6.6,0.9-8.1,3.2c-0.6,0.9-0.9,1.8-0.9,2.9  c0,1.5,0,2.2,0,2.2h18C41,41,41,40.4,41,38.8z"/></svg>